<svg width="16" height="19" viewBox="0 0 16 19" fill="none" xmlns="http://www.w3.org/2000/svg">
<path d="M13.2321 9.5C13.2321 12.151 11.0831 14.3 8.43213 14.3C5.78116 14.3 3.63213 12.151 3.63213 9.5C3.63213 6.84903 5.78116 4.7 8.43213 4.7C11.0831 4.7 13.2321 6.84903 13.2321 9.5Z" fill="#9C9CFF"/>
<path d="M8.43213 1.5V2.3M8.43213 16.7V17.5M15.3603 5.5L14.6675 5.9M2.19673 13.1L1.50391 13.5M1.50391 5.5L2.19673 5.9M14.6675 13.1L15.3603 13.5M13.2321 9.5C13.2321 12.151 11.0831 14.3 8.43213 14.3C5.78116 14.3 3.63213 12.151 3.63213 9.5C3.63213 6.84903 5.78116 4.7 8.43213 4.7C11.0831 4.7 13.2321 6.84903 13.2321 9.5Z" stroke="#9C9CFF" stroke-width="1.125" stroke-linecap="round"/>
</svg>
